<svg width="100" height="100" viewBox="0 0 100 100" fill="none" xmlns="http://www.w3.org/2000/svg">
<g clip-path="url(#clip0_2687_79881)">
<path d="M12.3154 33.6836H13.2047C16.2919 33.7507 19.3289 34.9923 21.5101 37.1903C20.7047 38.0125 19.8826 38.8011 19.094 39.6232C17.8691 38.5158 16.3926 37.6601 14.7819 37.3581C12.3993 36.8547 9.83222 37.3078 7.83557 38.6668C5.65436 40.093 4.17785 42.5091 3.85906 45.093C3.50671 47.6434 4.22819 50.3279 5.88926 52.3078C7.48322 54.2373 9.91611 55.4454 12.4329 55.5293C14.7819 55.6635 17.2315 54.942 18.943 53.2977C20.2852 52.14 20.906 50.3783 21.1074 48.6669C18.3221 48.6669 15.5369 48.6836 12.7517 48.6669V45.2105H24.4799C25.0839 48.9185 24.2114 53.0964 21.3926 55.7474C19.5134 57.6266 16.9128 58.734 14.2617 58.9521C11.6946 59.2038 9.04362 58.7172 6.76174 57.4756C4.02685 56.0159 1.84564 53.5494 0.771812 50.6467C-0.234899 47.9789 -0.251678 44.9588 0.687919 42.2742C1.54362 39.8245 3.18792 37.6601 5.30201 36.15C7.33222 34.6568 9.79866 33.8346 12.3154 33.6836Z" fill="#3780FF"/>
<path d="M79.5973 34.5547H83.1879V58.5144C81.9966 58.5144 80.7886 58.5312 79.5973 58.4976C79.6141 50.5278 79.5973 42.5413 79.5973 34.5547Z" fill="#38B137"/>
<path d="M32.4665 42.8598C34.6812 42.4403 37.0806 42.9101 38.9094 44.2356C40.5705 45.4101 41.7282 47.2558 42.0806 49.2692C42.5336 51.6014 41.9631 54.1517 40.453 55.9974C38.8255 58.0611 36.1577 59.1685 33.5571 59.0007C31.1745 58.8665 28.8591 57.6752 27.4497 55.7289C25.8557 53.5813 25.4698 50.6282 26.3423 48.1115C27.2148 45.4101 29.6812 43.3464 32.4665 42.8598ZM32.9698 46.0477C32.0638 46.2826 31.2248 46.8027 30.6208 47.541C28.9933 49.4873 29.094 52.6584 30.8893 54.4705C31.9128 55.5108 33.4564 55.9974 34.8826 55.7121C36.2081 55.4772 37.3658 54.588 38.0034 53.4135C39.1108 51.4168 38.792 48.6652 37.0973 47.1047C36.0067 46.098 34.4128 45.6786 32.9698 46.0477Z" fill="#FA3913"/>
<path d="M50.2517 42.861C52.7852 42.3744 55.5537 43.0791 57.4497 44.8577C60.5369 47.6261 60.8725 52.8107 58.2383 55.9986C56.6443 58.012 54.0604 59.1194 51.5101 59.0019C49.0772 58.9348 46.6779 57.7268 45.2349 55.7301C43.6074 53.5321 43.2551 50.512 44.1779 47.9449C45.1007 45.3275 47.5168 43.3308 50.2517 42.861ZM50.755 46.0489C49.849 46.2838 49.0101 46.804 48.4061 47.5254C46.7953 49.4382 46.8624 52.559 48.5906 54.3878C49.6141 55.4784 51.2081 56.0154 52.6846 55.7133C53.9933 55.4617 55.1678 54.5892 55.8054 53.4147C56.896 51.4013 56.5772 48.6496 54.8658 47.0892C53.7752 46.0825 52.1812 45.6798 50.755 46.0489Z" fill="#FCBD06"/>
<path d="M65.3356 43.8347C67.2652 42.6266 69.8323 42.2911 71.9128 43.3313C72.5672 43.6166 73.1041 44.1031 73.6242 44.5897C73.641 44.1367 73.6242 43.6669 73.641 43.1971C74.7652 43.2139 75.8893 43.1971 77.0303 43.2139V58.0125C77.0135 60.2441 76.443 62.6098 74.8323 64.2373C73.0705 66.0326 70.3692 66.5863 67.9363 66.2172C65.3356 65.8313 63.0705 63.9353 62.0638 61.536C63.0705 61.0494 64.1276 60.6635 65.1679 60.2105C65.7551 61.5863 66.9464 62.7608 68.4397 63.0293C69.933 63.2977 71.6611 62.9286 72.6343 61.687C73.6746 60.4118 73.6746 58.6669 73.6242 57.1065C72.8524 57.8615 71.9632 58.5327 70.8893 58.7843C68.5571 59.4387 65.99 58.6333 64.1947 57.0561C62.3826 55.479 61.3088 53.0461 61.4095 50.63C61.4598 47.8951 63.0034 45.2609 65.3356 43.8347ZM68.8088 45.9823C67.7853 46.1501 66.8289 46.7206 66.1746 47.5092C64.5974 49.3884 64.5974 52.3917 66.1913 54.2374C67.0974 55.328 68.5571 55.932 69.9665 55.781C71.292 55.6468 72.5169 54.8078 73.1712 53.6501C74.2786 51.687 74.094 49.0192 72.6007 47.3078C71.6779 46.2508 70.2014 45.7307 68.8088 45.9823Z" fill="#3780FF"/>
<path d="M87.5 44.6891C89.5135 42.81 92.6175 42.1724 95.2014 43.1623C97.6511 44.0851 99.2115 46.4173 100 48.8167C96.3591 50.3267 92.7349 51.82 89.094 53.3301C89.5974 54.2865 90.3692 55.159 91.4094 55.5113C92.8692 56.0314 94.6141 55.8469 95.839 54.8737C96.3256 54.5046 96.7115 54.018 97.0806 53.5482C98.0034 54.169 98.9262 54.773 99.849 55.3939C98.5403 57.3569 96.3423 58.7328 93.9766 58.9509C91.3591 59.2697 88.5739 58.263 86.8792 56.216C84.094 52.9945 84.3624 47.5918 87.5 44.6891ZM89.2953 47.7932C88.7249 48.6153 88.49 49.622 88.5067 50.612C90.9396 49.6053 93.3725 48.5985 95.8054 47.5751C95.4027 46.6355 94.4296 46.065 93.4396 45.914C91.8457 45.6287 90.1846 46.4844 89.2953 47.7932Z" fill="#FA3913"/>
</g>
<defs>
<clipPath id="clip0_2687_79881">
<rect width="100" height="100" fill="white"/>
</clipPath>
</defs>
</svg>
