<svg width="100" height="100" viewBox="0 0 100 100" fill="none" xmlns="http://www.w3.org/2000/svg">
<path d="M41.9125 44.0874C40.1069 44.0874 38.0533 44.9244 36.7986 46.6002L36.7994 46.5969L36.7986 46.5977L36.7994 44.3505H32.4927V60.0339H36.7986V51.1099C36.7986 49.5038 38.0438 47.7963 40.3497 47.7963C42.1315 47.7963 43.9756 49.0359 43.9756 51.1099V60.0339H48.2822V50.3119C48.2822 46.7046 45.7014 44.0874 41.9125 44.0874ZM78.8909 44.3513L74.9976 55.0343L71.1042 44.3513H66.1846L72.6376 60.0297H77.3568L83.8097 44.3513H78.8909ZM19.6358 49.0759C20.3691 48.0911 21.5374 47.5129 22.9483 47.5129C24.5002 47.5129 25.6776 48.3992 26.2863 49.7074L18.7622 52.8291C18.5568 51.227 18.9667 49.9741 19.6358 49.0759ZM27.9095 55.2121C26.097 56.5535 25.0614 56.8735 23.4085 56.8735C21.921 56.8735 20.7564 56.4117 19.9354 55.6018L30.9455 51.0343C30.705 49.3323 30.059 47.8117 29.065 46.6555C27.6184 44.9755 25.4772 44.0866 22.8701 44.0866C18.1347 44.0866 14.564 47.58 14.564 52.1941C14.564 56.9279 18.1432 60.3006 23.3448 60.3006C26.2592 60.3006 29.239 58.9194 30.6329 57.3056L27.9095 55.2121ZM14.1535 56.0796H4.36545V39.6602H0V60.0339H14.1535V56.0796ZM91.5428 47.7771C89.1378 47.7771 87.3913 49.5998 87.3913 52.1925C87.3913 54.6681 89.2412 56.6079 91.6006 56.6079C94.0065 56.6079 95.7519 54.7351 95.7519 52.1925C95.7519 49.7169 93.9028 47.7771 91.5428 47.7771ZM91.5428 60.2984C86.8329 60.2984 83.1424 56.7895 83.1424 52.1925C83.1424 47.647 86.8584 44.0866 91.6006 44.0866C96.3105 44.0866 100 47.5953 100 52.1925C100 56.7369 96.2848 60.2982 91.5428 60.2982V60.2984ZM58.3855 47.7771C55.9804 47.7771 54.235 49.5998 54.235 52.1925C54.235 54.6681 56.084 56.6079 58.444 56.6079C60.8491 56.6079 62.5945 54.7351 62.5945 52.1925C62.5945 49.7169 60.7455 47.7771 58.3855 47.7771ZM58.3855 60.2984C53.6756 60.2984 49.9861 56.7895 49.9861 52.1925C49.9861 47.647 53.701 44.0866 58.444 44.0866C63.1531 44.0866 66.8434 47.5953 66.8434 52.1925C66.8434 56.7369 63.1277 60.2982 58.3855 60.2982" fill="#E60012"/>
</svg>
