<svg width="100" height="20" viewBox="0 0 100 20" fill="none" xmlns="http://www.w3.org/2000/svg">
<path d="M15.919 0.148438H0.0489502V4.00844L1.49895 9.74844L6.04895 10.0084L9.90895 6.14844L17.549 4.50844L15.919 0.148438Z" fill="#00C425"/>
<path d="M0.0489502 4.00781V19.8778H3.90895L10.369 19.3378L9.91895 13.8678L0.0489502 4.00781V4.00781Z" fill="#3AF23A"/>
<path d="M3.90637 19.8778H19.7764V16.0178L18.0864 10.8778L13.7664 10.0078L3.90637 19.8778Z" fill="#006446"/>
<path d="M95.6784 7.97809L92.1884 11.1482L95.6784 14.3382V16.1783H95.5684L90.3884 11.4782V15.9483H88.8884V2.42797H90.3884V10.8782L95.5384 6.18805H95.6784V7.97809V7.97809ZM27.9884 15.9483H35.6484V14.4382H29.5484V2.86798H27.9884V15.9483ZM40.9484 6.19805C38.5984 6.19805 36.4584 8.10809 36.4584 11.1882C36.4584 14.1782 38.4184 16.1583 41.2384 16.1583C42.4984 16.1583 43.6584 15.8383 44.7084 15.0782V13.4682C43.6084 14.3882 42.3884 14.7782 41.2884 14.7782C39.5984 14.7782 38.0984 13.7282 37.9584 11.7682H45.0984C45.1184 11.5782 45.1584 11.1582 45.1584 10.9982C45.1584 7.84809 43.2584 6.19805 40.9484 6.19805V6.19805ZM40.9584 7.56808C42.2884 7.56808 43.6384 8.4281 43.6884 10.4581H37.9484C38.0384 8.88811 39.2484 7.56808 40.9584 7.56808ZM66.1484 6.19805C64.8784 6.19805 63.9584 6.86807 63.4084 7.85809C62.9484 6.79807 62.0984 6.19805 60.7384 6.19805C59.5484 6.19805 58.6684 6.88807 58.1884 7.80809H58.1484L57.9684 6.38806H56.7784V15.9383H58.2984V9.90814C58.2984 8.73811 59.0284 7.64808 60.3484 7.64808C61.6384 7.64808 62.2084 8.4081 62.2084 9.78813V15.9483H63.7284V9.80813C63.7284 8.69811 64.4684 7.64808 65.7684 7.64808C67.0784 7.64808 67.6384 8.4081 67.6384 9.78813V15.9483H69.1584V9.57813C69.1684 7.57808 68.2384 6.19805 66.1484 6.19805V6.19805ZM75.3184 6.19805C73.0384 6.19805 70.9084 8.12809 70.9084 11.1882C70.9084 14.2082 73.0284 16.1583 75.3184 16.1583C76.7484 16.1583 78.0984 15.4883 78.8184 14.1582H78.8384L79.0184 15.9483H80.2584V6.39806H79.0184L78.8384 8.1881H78.8184C78.0984 6.87807 76.7484 6.19805 75.3184 6.19805ZM75.5984 7.61809C77.3984 7.61809 78.7684 9.06812 78.7684 11.1782C78.7684 13.2782 77.4084 14.7382 75.5984 14.7382C73.8284 14.7382 72.4284 13.3082 72.4284 11.1982C72.4284 9.04812 73.8284 7.61809 75.5984 7.61809V7.61809ZM86.7384 6.28805C85.9084 6.28805 84.6484 6.67806 83.9984 7.91809H83.9784L83.8184 6.39806H82.5984V15.9483H84.1184V10.4481C84.1184 8.2381 85.9084 7.54808 87.3784 7.84809V6.33806C87.1784 6.30805 86.9884 6.28805 86.7384 6.28805V6.28805ZM54.8284 6.17805H54.7084L50.7184 10.1581L46.7384 6.17805H46.6184V8.1081L49.6884 11.1782L46.6184 14.2282V16.1783H46.7384L50.6984 12.1782L54.7084 16.1783H54.8284V14.2182L51.7284 11.1482L54.8284 8.02809V6.17805V6.17805ZM95.6784 2.63797V2.42797H97.3384V2.63797H96.6384V4.29801H96.3884V2.62797C96.3784 2.63797 95.6784 2.63797 95.6784 2.63797V2.63797ZM98.1784 2.42797L98.8984 4.008L99.6184 2.42797H99.9584V4.29801H99.7184V2.72798L98.9984 4.29801H98.7884L98.0784 2.72798V4.29801H97.8384V2.41797H98.1784V2.42797Z" fill="#32323C"/>
<path d="M19.782 16.0184V0.148438H15.922L9.922 6.14844L19.782 16.0184Z" fill="#008A44"/>
</svg>
