<svg width="100" height="100" viewBox="0 0 100 100" fill="none" xmlns="http://www.w3.org/2000/svg">
<g clip-path="url(#clip0_2687_79888)">
<path d="M100 48.9805V47.2218H97.8161V44.4878L97.7425 44.5104L95.6913 45.138L95.6508 45.1503V47.2219H92.4132V46.0679C92.4132 45.5305 92.5333 45.1193 92.7701 44.845C93.0053 44.5741 93.3417 44.4363 93.7707 44.4363C94.0791 44.4363 94.3984 44.509 94.7198 44.6522L94.8003 44.6882V42.8361L94.7624 42.8222C94.4626 42.7144 94.0549 42.6602 93.5495 42.6602C92.9125 42.6602 92.3337 42.7988 91.8289 43.0735C91.3239 43.3486 90.9266 43.7414 90.6483 44.2407C90.3709 44.7395 90.2302 45.3156 90.2302 45.9531V47.2218H88.7095V48.9805H90.2302V56.3894H92.4132V48.9805H95.6508V53.6887C95.6508 55.6278 96.5655 56.6105 98.3693 56.6105C98.6657 56.6105 98.9777 56.5757 99.2962 56.5077C99.6205 56.4379 99.8413 56.3681 99.9713 56.2936L100 56.2766V54.5017L99.9113 54.5604C99.7928 54.6394 99.6452 54.7039 99.4723 54.7519C99.2985 54.8007 99.1534 54.8252 99.041 54.8252C98.6185 54.8252 98.3058 54.7113 98.1119 54.4866C97.9157 54.2599 97.8162 53.8633 97.8162 53.3087V48.9805H100ZM83.8344 54.8255C83.042 54.8255 82.4173 54.5628 81.9771 54.0452C81.5341 53.5251 81.3097 52.7835 81.3097 51.8413C81.3097 50.8692 81.5341 50.1083 81.9773 49.579C82.4178 49.0532 83.0365 48.7863 83.8166 48.7863C84.5736 48.7863 85.1761 49.0412 85.6078 49.5443C86.0415 50.05 86.2617 50.8047 86.2617 51.7882C86.2617 52.7837 86.0547 53.5484 85.6465 54.0599C85.241 54.5676 84.6314 54.8255 83.8344 54.8255ZM83.9314 47.001C82.4197 47.001 81.2191 47.4439 80.363 48.3176C79.5074 49.1913 79.0737 50.4004 79.0737 51.9116C79.0737 53.347 79.4971 54.5015 80.3323 55.3426C81.1675 56.184 82.3041 56.6103 83.7104 56.6103C85.1757 56.6103 86.3525 56.1611 87.2082 55.2754C88.0639 54.3907 88.4973 53.193 88.4973 51.7171C88.4973 50.2593 88.0906 49.0961 87.288 48.2606C86.485 47.4247 85.3555 47.001 83.9314 47.001ZM75.5539 47.001C74.5256 47.001 73.675 47.264 73.0253 47.7826C72.3715 48.3043 72.0399 48.9885 72.0399 49.8165C72.0399 50.2469 72.1115 50.6292 72.2524 50.9534C72.3941 51.2788 72.6134 51.5652 72.9047 51.8056C73.1939 52.044 73.6402 52.2938 74.2317 52.5479C74.7289 52.7525 75.0997 52.9256 75.3352 53.062C75.5655 53.1957 75.7288 53.33 75.8211 53.4609C75.9108 53.589 75.9563 53.7643 75.9563 53.9806C75.9563 54.5965 75.495 54.8962 74.546 54.8962C74.1939 54.8962 73.7924 54.8227 73.3525 54.6778C72.9158 54.5351 72.5036 54.326 72.1304 54.0581L72.0397 53.9931V56.0949L72.073 56.1103C72.3819 56.2529 72.7713 56.3732 73.2304 56.4678C73.6885 56.5625 74.1048 56.6107 74.4664 56.6107C75.5822 56.6107 76.4808 56.3464 77.1364 55.8247C77.7963 55.2994 78.1307 54.599 78.1307 53.7424C78.1307 53.1245 77.9507 52.5946 77.5958 52.1672C77.2434 51.7433 76.6318 51.3541 75.7787 51.0101C75.099 50.7373 74.6636 50.5109 74.4839 50.337C74.3108 50.1691 74.2229 49.9316 74.2229 49.6309C74.2229 49.3643 74.3314 49.1507 74.5542 48.9777C74.7787 48.8039 75.0913 48.7154 75.4832 48.7154C75.847 48.7154 76.2191 48.7729 76.5892 48.8855C76.959 48.9981 77.2839 49.1489 77.555 49.3334L77.6442 49.3943V47.4006L77.61 47.3859C77.3598 47.2786 77.0299 47.1868 76.6293 47.1123C76.2304 47.0383 75.8686 47.001 75.5539 47.001ZM66.3489 54.8255C65.5567 54.8255 64.9318 54.5628 64.4917 54.0452C64.0486 53.5251 63.8246 52.7837 63.8246 51.8413C63.8246 50.8692 64.0489 50.1083 64.4921 49.579C64.9323 49.0532 65.5509 48.7863 66.3314 48.7863C67.088 48.7863 67.6906 49.0412 68.1223 49.5443C68.5562 50.05 68.7763 50.8047 68.7763 51.7882C68.7763 52.7837 68.5692 53.5484 68.1609 54.0599C67.7555 54.5676 67.1462 54.8255 66.3489 54.8255ZM66.4462 47.001C64.9341 47.001 63.7333 47.4439 62.8777 48.3176C62.0222 49.1913 61.5881 50.4004 61.5881 51.9116C61.5881 53.3476 62.0118 54.5015 62.8471 55.3426C63.6823 56.184 64.8188 56.6103 66.2251 56.6103C67.6902 56.6103 68.8673 56.1611 69.723 55.2754C70.5784 54.3907 71.0121 53.193 71.0121 51.7171C71.0121 50.2593 70.6052 49.0961 69.8024 48.2606C68.9992 47.4247 67.87 47.001 66.4462 47.001ZM58.2744 48.8095V47.2218H56.1179V56.3892H58.2744V51.6998C58.2744 50.9024 58.4552 50.2473 58.8119 49.7525C59.1641 49.2636 59.6335 49.0158 60.2066 49.0158C60.4008 49.0158 60.6189 49.0478 60.855 49.1112C61.0887 49.1742 61.258 49.2426 61.3578 49.3145L61.4485 49.3802V47.2062L61.4135 47.1912C61.2127 47.1059 60.9286 47.0628 60.5691 47.0628C60.0272 47.0628 59.5423 47.2369 59.1269 47.5798C58.7623 47.8811 58.4988 48.2943 58.2973 48.8095H58.2744ZM52.2562 47.001C51.2669 47.001 50.3844 47.2131 49.6339 47.6313C48.8817 48.0505 48.3001 48.6489 47.9043 49.4098C47.5103 50.1689 47.3103 51.0556 47.3103 52.0444C47.3103 52.9106 47.5042 53.7055 47.8876 54.406C48.2712 55.1078 48.814 55.6567 49.5012 56.0375C50.1875 56.4178 50.9806 56.6106 51.8588 56.6106C52.8836 56.6106 53.7586 56.4057 54.4601 56.0016L54.4884 55.9854V54.0097L54.3978 54.0759C54.08 54.3074 53.7249 54.4921 53.3428 54.6252C52.9617 54.7583 52.6142 54.8255 52.3095 54.8255C51.4633 54.8255 50.784 54.5607 50.291 54.0387C49.7969 53.5161 49.5463 52.7821 49.5463 51.8586C49.5463 50.9292 49.8076 50.1764 50.3225 49.621C50.8359 49.0672 51.5164 48.7863 52.3451 48.7863C53.0538 48.7863 53.7445 49.0263 54.398 49.5003L54.4884 49.5659V47.4843L54.4592 47.4678C54.2133 47.3302 53.8779 47.2165 53.4616 47.1303C53.047 47.0443 52.6415 47.001 52.2562 47.001ZM45.8251 47.2219H43.6687V56.3892H45.8251V47.2219ZM44.7689 43.3166C44.414 43.3166 44.1045 43.4374 43.8501 43.6769C43.5948 43.917 43.4652 44.2193 43.4652 44.576C43.4652 44.9272 43.5932 45.224 43.8462 45.4577C44.0975 45.6907 44.408 45.8088 44.769 45.8088C45.13 45.8088 45.4416 45.6907 45.696 45.4581C45.9519 45.224 46.0817 44.9273 46.0817 44.576C46.0817 44.2317 45.9554 43.9325 45.7065 43.6865C45.4578 43.441 45.1422 43.3166 44.7689 43.3166ZM39.3885 46.5456V56.3892H41.5892V43.5972H38.5433L34.6718 53.0987L30.9147 43.5972H27.7448V56.3891H29.8129V46.5446H29.8839L33.8513 56.3892H35.412L39.3175 46.5456H39.3885Z" fill="#706D6E"/>
<path d="M10.1445 49.4687H0V39.3242H10.1445V49.4687Z" fill="#F1511B"/>
<path d="M21.3451 49.4687H11.2008V39.3242H21.3451V49.4687Z" fill="#80CC28"/>
<path d="M10.1442 60.6717H0V50.5273H10.1442V60.6717Z" fill="#00ADEF"/>
<path d="M21.3451 60.6717H11.2008V50.5273H21.3451V60.6717Z" fill="#FBBC09"/>
</g>
<defs>
<clipPath id="clip0_2687_79888">
<rect width="100" height="100" fill="white"/>
</clipPath>
</defs>
</svg>
