<svg width="100" height="28" viewBox="0 0 100 28" fill="none" xmlns="http://www.w3.org/2000/svg">
<path d="M13.7503 25.7719C12.246 26.0361 10.7152 26.1153 9.13174 26.3262L4.30186 12.1801V26.9334C2.79756 27.0917 1.4252 27.3028 0 27.5139V0.488281H4.01172L9.50117 15.8224V0.488281H13.7503V25.7719ZM22.0639 10.3854C23.7003 10.3854 26.2075 10.3062 27.7118 10.3062V14.5288C25.8379 14.5288 23.6475 14.5288 22.0639 14.608V20.8895C24.5448 20.7312 27.0257 20.5199 29.5328 20.4407V24.5048L17.841 25.4288V0.488281H29.5328V4.71104H22.0639V10.3854ZM45.2361 4.71114H40.8551V24.1358C39.4299 24.1358 38.0047 24.1358 36.6325 24.1884V4.71114H32.2515V0.488281H45.2363L45.2361 4.71114V4.71114ZM52.098 10.0951H57.878V14.3178H52.098V23.8983H47.9542V0.488281H59.7519V4.71104H52.098V10.0951ZM66.6138 20.2033C69.0155 20.2559 71.4435 20.441 73.7925 20.5727V24.7427C70.0185 24.505 66.2443 24.2678 62.3911 24.1884V0.488281H66.6138V20.2033ZM77.3554 25.0331C78.7014 25.1124 80.1266 25.1916 81.4989 25.3497V0.488281H77.3554V25.0331ZM100 0.488281L94.6423 13.3413L100 27.5139C98.4163 27.3028 96.8328 27.0125 95.2492 26.7485L92.2143 18.9366L89.1267 26.1153C87.5956 25.8511 86.1177 25.7719 84.5872 25.5608L90.0239 13.1828L85.1148 0.488281H89.6541L92.4253 7.58781L95.3813 0.488281H100Z" fill="#D81F26"/>
</svg>
