<svg width="100" height="100" viewBox="0 0 100 100" fill="none" xmlns="http://www.w3.org/2000/svg">
<path fill-rule="evenodd" clip-rule="evenodd" d="M31.9919 57.2822L33.2399 54.3822C34.5879 55.3902 36.3839 55.9142 38.1559 55.9142C39.4639 55.9142 40.2919 55.4102 40.2919 54.6462C40.2719 52.5102 32.4559 54.1822 32.3959 48.8262C32.3759 46.1062 34.7919 44.0102 38.2159 44.0102C40.2519 44.0102 42.2839 44.5142 43.7359 45.6622L42.5679 48.6222C41.2399 47.7742 39.5879 47.1702 38.0159 47.1702C36.9479 47.1702 36.2439 47.6742 36.2439 48.3182C36.2639 50.4142 44.1399 49.2662 44.2199 54.3822C44.2199 57.1622 41.8639 59.1182 38.4799 59.1182C35.9999 59.1142 33.7239 58.5302 31.9919 57.2822V57.2822ZM79.9159 53.3342C79.2919 54.4222 78.1239 55.1662 76.7719 55.1662C74.7759 55.1662 73.1679 53.5542 73.1679 51.5622C73.1679 49.5702 74.7799 47.9582 76.7719 47.9582C78.1199 47.9582 79.2919 48.7022 79.9159 49.7902L83.3599 47.8782C82.0719 45.5822 79.5919 44.0102 76.7719 44.0102C72.5999 44.0102 69.2159 47.3942 69.2159 51.5662C69.2159 55.7382 72.5999 59.1222 76.7719 59.1222C79.6119 59.1222 82.0719 57.5702 83.3599 55.2542L79.9159 53.3342ZM45.9519 37.7422H50.2639V58.8342H45.9519V37.7422ZM85.0519 37.7422V58.8342H89.3639V52.5062L94.4799 58.8342H99.9999L93.4919 51.3182L99.5159 44.3062H94.2359L89.3599 50.1262V37.7422H85.0519Z" fill="black"/>
<path d="M63.076 53.3758C62.452 54.4038 61.164 55.1678 59.712 55.1678C57.716 55.1678 56.108 53.5558 56.108 51.5638C56.108 49.5718 57.72 47.9598 59.712 47.9598C61.164 47.9598 62.452 48.7638 63.076 49.8118V53.3758ZM63.076 44.3118V46.0238C62.372 44.8358 60.62 44.0078 58.784 44.0078C54.996 44.0078 52.016 47.3518 52.016 51.5438C52.016 55.7358 54.996 59.1198 58.784 59.1198C60.616 59.1198 62.368 58.2958 63.076 57.1038V58.8158H67.388V44.3118H63.076Z" fill="black"/>
<path fill-rule="evenodd" clip-rule="evenodd" d="M5.34002 53.3553C5.34002 54.8273 4.15202 56.0153 2.68002 56.0153C1.20802 56.0153 0.0200195 54.8233 0.0200195 53.3553C0.0200195 51.8873 1.20802 50.6953 2.68002 50.6953H5.34002V53.3553ZM6.66802 53.3553C6.66802 51.8833 7.85602 50.6953 9.32802 50.6953C10.8 50.6953 11.988 51.8833 11.988 53.3553V60.0033C11.988 61.4753 10.8 62.6633 9.32802 62.6633C7.85602 62.6633 6.66802 61.4753 6.66802 60.0033V53.3553Z" fill="#E01E5A"/>
<path fill-rule="evenodd" clip-rule="evenodd" d="M9.328 42.6794C7.856 42.6794 6.668 41.4914 6.668 40.0194C6.668 38.5474 7.856 37.3594 9.328 37.3594C10.8 37.3594 11.988 38.5474 11.988 40.0194V42.6794H9.328ZM9.328 44.0274C10.8 44.0274 11.988 45.2154 11.988 46.6874C11.988 48.1594 10.8 49.3474 9.328 49.3474H2.66C1.188 49.3474 0 48.1554 0 46.6874C0 45.2194 1.188 44.0274 2.66 44.0274H9.328Z" fill="#36C5F0"/>
<path fill-rule="evenodd" clip-rule="evenodd" d="M19.984 46.6874C19.984 45.2154 21.172 44.0274 22.644 44.0274C24.116 44.0274 25.304 45.2154 25.304 46.6874C25.304 48.1594 24.116 49.3474 22.644 49.3474H19.984V46.6874ZM18.656 46.6874C18.656 48.1594 17.4681 49.3474 15.9961 49.3474C14.5241 49.3474 13.3361 48.1594 13.3361 46.6874V40.0194C13.3361 38.5474 14.5241 37.3594 15.9961 37.3594C17.4681 37.3594 18.656 38.5474 18.656 40.0194V46.6874Z" fill="#2EB67D"/>
<path fill-rule="evenodd" clip-rule="evenodd" d="M15.9961 57.3433C17.468 57.3433 18.656 58.5313 18.656 60.0033C18.656 61.4753 17.468 62.6633 15.9961 62.6633C14.5241 62.6633 13.3361 61.4753 13.3361 60.0033V57.3433H15.9961ZM15.9961 56.0153C14.5241 56.0153 13.3361 54.8273 13.3361 53.3553C13.3361 51.8833 14.5241 50.6953 15.9961 50.6953H22.664C24.136 50.6953 25.324 51.8833 25.324 53.3553C25.324 54.8273 24.136 56.0153 22.664 56.0153H15.9961Z" fill="#ECB22E"/>
</svg>
