<svg width="40" height="40" viewBox="0 0 40 40" fill="none" xmlns="http://www.w3.org/2000/svg">
<path opacity="0.2" d="M13.7501 25C18.2374 25 21.8751 21.3623 21.8751 16.875C21.8751 12.3877 18.2374 8.75 13.7501 8.75C9.26275 8.75 5.62506 12.3877 5.62506 16.875C5.62506 21.3623 9.26275 25 13.7501 25Z" fill="#FF6636"/>
<path d="M13.7501 25C18.2374 25 21.8751 21.3623 21.8751 16.875C21.8751 12.3877 18.2374 8.75 13.7501 8.75C9.26275 8.75 5.62506 12.3877 5.62506 16.875C5.62506 21.3623 9.26275 25 13.7501 25Z" stroke="#FF6636" stroke-width="2" stroke-miterlimit="10"/>
<path d="M24.2831 9.05452C25.4006 8.73965 26.5727 8.66792 27.7203 8.84416C28.8678 9.0204 29.9643 9.44051 30.9359 10.0762C31.9074 10.7119 32.7315 11.5484 33.3525 12.5294C33.9736 13.5104 34.3772 14.613 34.5362 15.7632C34.6952 16.9133 34.6059 18.0841 34.2743 19.1968C33.9427 20.3094 33.3765 21.3381 32.6138 22.2136C31.8512 23.089 30.9098 23.7908 29.853 24.2718C28.7963 24.7528 27.6488 25.0017 26.4877 25.0019" stroke="#FF6636" stroke-width="2" stroke-linecap="round" stroke-linejoin="round"/>
<path d="M2.49921 30.8432C3.76817 29.0382 5.45279 27.565 7.41085 26.548C9.36891 25.531 11.5429 25.0001 13.7493 25C15.9558 24.9999 18.1298 25.5307 20.0879 26.5476C22.0461 27.5644 23.7308 29.0375 24.9999 30.8424" stroke="#FF6636" stroke-width="2" stroke-linecap="round" stroke-linejoin="round"/>
<path d="M26.4878 25C28.6944 24.9984 30.8689 25.5285 32.8272 26.5455C34.7855 27.5625 36.4699 29.0364 37.7378 30.8424" stroke="#FF6636" stroke-width="2" stroke-linecap="round" stroke-linejoin="round"/>
</svg>
