<svg width="100" height="100" viewBox="0 0 100 100" fill="none" xmlns="http://www.w3.org/2000/svg">
<path d="M97.6607 38.9592C98.4277 38.9189 99.1946 38.9189 99.9615 38.939C97.6607 43.7425 95.4407 48.5863 93.2004 53.4099H91.3235C90.2942 50.988 89.0832 48.6266 88.0135 46.2047C88.7603 46.1845 89.507 46.1845 90.2538 46.2047C90.8996 47.6982 91.6666 49.1312 92.2518 50.6247C94.0481 46.7295 95.9049 42.8544 97.6607 38.9592Z" fill="#FF0000"/>
<path d="M39.8785 41.0195C41.3519 41.0397 42.8454 41.0397 44.3187 41.0195C44.2985 42.3314 44.2985 43.6634 44.3187 44.9753C42.8454 44.9551 41.3519 44.9753 39.8584 44.9551C39.8987 43.6432 39.8584 42.3314 39.8785 41.0195V41.0195ZM17.5365 46.6706C20.5639 44.9551 24.9637 45.5404 27.0021 48.5072C28.2534 50.2631 28.6167 52.4832 28.5965 54.5821C25.1252 54.6023 21.6538 54.5821 18.1824 54.6023C18.3438 55.672 18.808 56.8022 19.797 57.3673C21.2098 58.1948 23.4298 57.9526 24.1362 56.3178C25.5692 56.2775 26.9819 56.2775 28.4149 56.3178C27.9709 57.9526 26.7801 59.3452 25.2866 60.1121C23.672 61.0001 21.7345 61.1616 19.9383 60.8589C18.0411 60.5561 16.2852 59.4865 15.2156 57.8921C14.045 56.1967 13.7422 54.0372 14.0046 52.0391C14.267 49.8393 15.5788 47.7605 17.5365 46.6706V46.6706ZM19.8979 49.1934C18.9089 49.6576 18.4246 50.7273 18.2026 51.7566H24.1362C24.0151 50.9695 23.7326 50.142 23.1271 49.5971C22.2794 48.7696 20.9272 48.7494 19.8979 49.1934V49.1934ZM64.0773 45.9037C66.4589 45.4799 69.1028 45.9844 70.9394 47.6394C74.0677 50.4246 74.2089 55.8133 71.3027 58.8003C69.0019 61.202 65.147 61.646 62.2004 60.2938C59.9197 59.2645 58.3657 56.9435 58.1033 54.4812C58.0024 53.0483 58.063 51.5749 58.6483 50.2429C59.5363 47.9623 61.6958 46.3073 64.0773 45.9037V45.9037ZM64.5819 49.1934C63.3306 49.6374 62.7453 50.9897 62.5637 52.2208C62.4224 53.7547 62.4426 55.4903 63.4315 56.7618C64.5012 58.1544 66.8625 58.1141 67.9322 56.7417C68.8202 55.6316 68.9615 54.1179 68.8606 52.7455C68.8 51.5346 68.3762 50.2429 67.3671 49.4962C66.5598 48.9512 65.4901 48.8705 64.5819 49.1934V49.1934ZM79.9206 46.7312C81.3939 45.5808 83.4929 45.4597 85.1882 46.1459C86.3992 46.6706 87.3074 47.7403 87.7312 48.9714C88.2156 50.2429 88.0743 51.6153 88.0743 52.9474C88.0743 55.4903 88.0541 58.0333 88.0945 60.5561C86.6212 60.5763 85.1478 60.5561 83.6543 60.5763V51.8575C83.6543 51.1108 83.3718 50.3035 82.7461 49.8393C81.7976 49.1934 80.4251 49.3145 79.6178 50.1218C78.972 50.7677 78.6895 51.696 78.7096 52.5841V60.5763C77.2565 60.5561 75.7832 60.5763 74.33 60.5561C74.33 55.7527 74.3502 50.9493 74.33 46.1459C75.763 46.1661 77.1758 46.1257 78.6087 46.1661C78.5885 46.8321 78.5885 47.4981 78.5684 48.1641C79.0124 47.6797 79.3757 47.1348 79.9206 46.7312V46.7312ZM0.0383301 46.1862H4.63994C5.56833 49.2742 6.55727 52.3621 7.42512 55.4702C8.49479 52.4226 9.30209 49.2742 10.3112 46.1862C11.7845 46.1661 13.278 46.1862 14.7514 46.1661C13.056 50.9695 11.4011 55.7729 9.72592 60.5763C8.19205 60.5763 6.65818 60.5561 5.12432 60.5965C3.36844 55.8133 1.81439 50.9493 0.0383301 46.1862ZM29.6057 46.1661H33.844C33.8238 46.9734 33.844 47.7806 33.8036 48.5879C34.1669 48.1843 34.4293 47.6797 34.8127 47.2963C35.7613 46.2468 37.3154 45.823 38.6878 46.1862C38.6676 47.4577 38.6676 48.7292 38.6878 49.9805C37.5979 49.8594 36.387 49.8998 35.4586 50.5658C34.4696 51.252 34.0256 52.5235 34.0458 53.6941C34.0256 55.9949 34.0458 58.2755 34.0458 60.5763C32.5725 60.5763 31.079 60.5561 29.6057 60.5965C29.6258 55.7729 29.6258 50.9695 29.6057 46.1661V46.1661ZM39.8785 46.1862C41.372 46.1661 42.8454 46.1862 44.3389 46.1661C44.3187 50.9695 44.3389 55.7729 44.3389 60.5763C42.8656 60.5561 41.372 60.5763 39.8785 60.5763V46.1862ZM45.5296 46.1661C49.546 46.1862 53.5623 46.1661 57.5584 46.1862C57.518 47.2963 57.5584 48.3861 57.5382 49.4962C57.3969 49.7787 57.1547 49.9805 56.9731 50.2227C54.9145 52.5033 52.8962 54.8445 50.7973 57.1049C53.1586 57.1453 55.52 57.1049 57.8813 57.1251V60.5965C53.7641 60.5763 49.6469 60.5763 45.5296 60.5965V57.2462C47.6892 54.8243 49.8285 52.4226 52.0082 50.0209C52.0688 49.8998 52.3311 49.7787 52.1899 49.6173C49.9698 49.6778 47.7497 49.6173 45.5296 49.6576V46.1661V46.1661Z" fill="black"/>
</svg>
