<svg width="100" height="100" viewBox="0 0 100 100" fill="none" xmlns="http://www.w3.org/2000/svg">
<g clip-path="url(#clip0_2687_79876)">
<path fill-rule="evenodd" clip-rule="evenodd" d="M28.4069 39.5045C29.7818 39.8749 30.8625 40.9555 31.2278 42.3254C31.8925 44.8114 31.8925 50.0018 31.8925 50.0018C31.8925 50.0018 31.8925 55.192 31.2278 57.678C30.8574 59.0529 29.7769 60.1336 28.4069 60.4989C25.9209 61.1636 15.9463 61.1636 15.9463 61.1636C15.9463 61.1636 5.97672 61.1636 3.48558 60.4989C2.11067 60.1285 1.02997 59.048 0.664706 57.678C0 55.192 0 50.0017 0 50.0017C0 50.0017 0 44.8114 0.664706 42.3254C1.03508 40.9505 2.11578 39.8698 3.48558 39.5045C5.97672 38.8398 15.9463 38.8398 15.9463 38.8398C15.9463 38.8398 25.9209 38.8398 28.4069 39.5045ZM21.0452 50.0017L12.7601 54.7862V45.2174L21.0452 50.0017Z" fill="#FF0000"/>
<path fill-rule="evenodd" clip-rule="evenodd" d="M46.2914 59.1495C45.6623 58.7234 45.2107 58.0638 44.9469 57.1659C44.683 56.2678 44.546 55.0756 44.546 53.5838V51.5545C44.546 50.0477 44.6982 48.8402 45.0027 47.9268C45.3071 47.0136 45.7841 46.349 46.4283 45.9329C47.0727 45.5169 47.92 45.3039 48.9702 45.3039C50.0053 45.3039 50.8323 45.5169 51.4562 45.9431C52.0803 46.3692 52.5369 47.0339 52.8261 47.937C53.1153 48.8402 53.2575 50.0477 53.2575 51.5493V53.5789C53.2575 55.0704 53.1153 56.2678 52.8362 57.1709C52.5572 58.0739 52.1007 58.7386 51.4664 59.1546C50.8373 59.5706 49.9798 59.7839 48.8991 59.7839C47.7931 59.7888 46.9205 59.5758 46.2914 59.1495ZM49.8276 56.9578C50.0001 56.5012 50.0915 55.7553 50.0915 54.7255V50.3673C50.0915 49.3626 50.0053 48.6321 49.8276 48.1654C49.6552 47.7036 49.3457 47.4703 48.9042 47.4703C48.4781 47.4703 48.1787 47.7036 48.0012 48.1654C47.8286 48.627 47.7374 49.3626 47.7374 50.3673V54.7255C47.7374 55.7605 47.8185 56.5063 47.986 56.9578C48.1534 57.4145 48.4578 57.6427 48.8993 57.6427C49.3457 57.6427 49.6501 57.4145 49.8276 56.9578ZM94.7287 53.6194V54.3247C94.7287 55.2227 94.7541 55.8923 94.81 56.3439C94.8606 56.7904 94.9723 57.1201 95.1397 57.3232C95.3071 57.5261 95.5658 57.6326 95.9158 57.6326C96.3878 57.6326 96.7124 57.45 96.885 57.0846C97.0575 56.7194 97.1537 56.1105 97.1691 55.2582L99.8834 55.4155C99.8987 55.5372 99.9037 55.7046 99.9037 55.9176C99.9037 57.2115 99.5485 58.1754 98.8433 58.8147C98.1381 59.454 97.1387 59.7736 95.8449 59.7736C94.2924 59.7736 93.2067 59.2865 92.5826 58.3124C91.9585 57.3383 91.6491 55.8365 91.6491 53.797V51.3566C91.6491 49.2562 91.9738 47.7289 92.618 46.7601C93.2624 45.796 94.3684 45.314 95.9363 45.314C97.0169 45.314 97.8439 45.5119 98.4222 45.9076C99.0006 46.3033 99.4065 46.9171 99.645 47.7544C99.8784 48.5915 100 49.7484 100 51.2196V53.6144H94.7287V53.6194ZM95.1295 47.734C94.9721 47.932 94.8657 48.2566 94.8098 48.7032C94.754 49.1496 94.7287 49.8346 94.7287 50.7427V51.7473H97.0321V50.7427C97.0321 49.8446 97.0017 49.1648 96.9407 48.7032C96.8799 48.2414 96.7683 47.9117 96.611 47.724C96.4536 47.5362 96.2051 47.4398 95.8702 47.4398C95.5354 47.4347 95.2868 47.5362 95.1295 47.734ZM38.6303 53.3556L35.0485 40.4231H38.1736L39.4269 46.2831C39.7465 47.7291 39.9799 48.9569 40.1321 49.9766H40.2233C40.3299 49.246 40.5633 48.0233 40.9287 46.3033L42.2274 40.418H45.3527L41.7303 53.3556V59.5605H38.6303V53.3556ZM63.4197 45.5779V59.5554H60.959L60.685 57.8457H60.619C59.9494 59.1394 58.9448 59.7838 57.6104 59.7838C56.6821 59.7838 55.997 59.4794 55.5557 58.8705C55.1143 58.2617 54.8962 57.313 54.8962 56.0193V45.5779H58.0418V55.8416C58.0418 56.4657 58.1077 56.9122 58.2447 57.176C58.3817 57.4398 58.61 57.5768 58.9296 57.5768C59.2036 57.5768 59.4674 57.4955 59.716 57.3282C59.9646 57.1608 60.1523 56.9476 60.2741 56.6889V45.5778L63.4197 45.5779ZM79.5638 45.5779V59.5554H77.1031L76.8291 57.8457H76.7631C76.0934 59.1394 75.0889 59.7838 73.7545 59.7838C72.8262 59.7838 72.1411 59.4794 71.6998 58.8705C71.2584 58.2617 71.0402 57.313 71.0402 56.0193V45.5779H74.1859V55.8416C74.1859 56.4657 74.2518 56.9122 74.3888 57.176C74.5257 57.4398 74.7541 57.5768 75.0737 57.5768C75.3477 57.5768 75.6115 57.4955 75.8601 57.3282C76.1087 57.1608 76.2964 56.9476 76.4182 56.6889V45.5778L79.5638 45.5779Z" fill="#282828"/>
<path fill-rule="evenodd" clip-rule="evenodd" d="M71.9738 42.9557H68.8485V59.5563H65.7688V42.9557H62.6436V40.4241H71.9687V42.9557H71.9738ZM89.9798 47.8161C89.7871 46.9334 89.4827 46.2941 89.0565 45.8984C88.6304 45.5026 88.047 45.3048 87.301 45.3048C86.7228 45.3048 86.1849 45.4671 85.6826 45.7969C85.1803 46.1216 84.7948 46.5529 84.5207 47.0856H84.4954V39.7188H81.4614V59.5614H84.059L84.3786 58.2373H84.4447C84.6882 58.7091 85.0534 59.0795 85.5405 59.3534C86.0275 59.6274 86.5655 59.7644 87.159 59.7644C88.2245 59.7644 89.0057 59.2722 89.5081 58.293C90.0103 57.3139 90.259 55.7817 90.259 53.6964V51.4843C90.2641 49.9216 90.1676 48.699 89.9798 47.8162V47.8161ZM87.093 53.5188C87.093 54.5387 87.0524 55.3351 86.9663 55.9136C86.885 56.492 86.743 56.9029 86.5451 57.1465C86.3472 57.3899 86.0834 57.5117 85.7486 57.5117C85.4897 57.5117 85.2514 57.4509 85.0281 57.3291C84.81 57.2073 84.6273 57.0247 84.4903 56.7811V48.8411C84.5969 48.4605 84.7795 48.1511 85.0383 47.9076C85.297 47.664 85.576 47.5422 85.8804 47.5422C86.2001 47.5422 86.4486 47.669 86.6212 47.9176C86.7937 48.1663 86.9155 48.5924 86.9864 49.1809C87.0525 49.7745 87.0879 50.6168 87.0879 51.7125V53.5188H87.093Z" fill="#282828"/>
</g>
<defs>
<clipPath id="clip0_2687_79876">
<rect width="100" height="100" fill="white"/>
</clipPath>
</defs>
</svg>
